<?xml version="1.0" standalone="no"?>
<!DOCTYPE svg PUBLIC "-//W3C//DTD SVG 20010904//EN"
 "http://www.w3.org/TR/2001/REC-SVG-20010904/DTD/svg10.dtd">
<svg version="1.0" xmlns="http://www.w3.org/2000/svg"
 width="225.000000pt" height="225.000000pt" viewBox="0 0 225.000000 225.000000"
 preserveAspectRatio="xMidYMid meet">
<metadata>
Created by potrace 1.15, written by Peter Selinger 2001-2017
</metadata>
<g transform="translate(0.000000,225.000000) scale(0.100000,-0.100000)"
fill="#000000" stroke="none">
<path d="M1076 2018 c-19 -27 -20 -47 -3 -73 12 -18 -30 -95 -442 -808 -250
-433 -460 -786 -465 -786 -46 5 -76 -19 -76 -61 0 -60 75 -80 112 -30 l22 30
901 0 901 0 22 -30 c37 -50 112 -30 112 30 0 42 -30 66 -76 61 -5 0 -215 353
-465 786 -452 783 -455 788 -439 815 13 25 13 31 0 55 -21 38 -81 45 -104 11z
m531 -886 c413 -715 451 -785 441 -808 l-11 -24 -912 0 -912 0 -11 24 c-10 23
27 92 429 788 242 420 447 773 455 786 11 17 23 22 42 20 24 -3 71 -79 479
-786z"/>
</g>
</svg>
